<?xml version="1.0" encoding="UTF-8" standalone="no"?>
<!-- Created with Inkscape (http://www.inkscape.org/) -->

<svg
   xmlns:dc="http://purl.org/dc/elements/1.1/"
   xmlns:cc="http://creativecommons.org/ns#"
   xmlns:rdf="http://www.w3.org/1999/02/22-rdf-syntax-ns#"
   xmlns:svg="http://www.w3.org/2000/svg"
   xmlns="http://www.w3.org/2000/svg"
   xmlns:sodipodi="http://sodipodi.sourceforge.net/DTD/sodipodi-0.dtd"
   xmlns:inkscape="http://www.inkscape.org/namespaces/inkscape"
   viewBox="0 0 350 210"
   id="svg4484"
   version="1.1"
   inkscape:version="0.91 r13725"
   sodipodi:docname="header__logo.orig.svg"
   height="100%"
   width="100%">
  <defs
     id="defs4486" />
  <sodipodi:namedview
     id="base"
     pagecolor="#ffffff"
     bordercolor="#666666"
     borderopacity="1.0"
     inkscape:pageopacity="0.0"
     inkscape:pageshadow="2"
     inkscape:zoom="1.840498"
     inkscape:cx="106.38093"
     inkscape:cy="110.88524"
     inkscape:document-units="px"
     inkscape:current-layer="layer1"
     showgrid="false"
     inkscape:window-width="1440"
     inkscape:window-height="851"
     inkscape:window-x="0"
     inkscape:window-y="0"
     inkscape:window-maximized="1"
     showguides="true"
     inkscape:guide-bbox="true"
     showborder="true"
     inkscape:showpageshadow="true" />
  <metadata
     id="metadata4489">
    <rdf:RDF>
      <cc:Work
         rdf:about="">
        <dc:format>image/svg+xml</dc:format>
        <dc:type
           rdf:resource="http://purl.org/dc/dcmitype/StillImage" />
        <dc:title />
      </cc:Work>
    </rdf:RDF>
  </metadata>
  <g
     inkscape:label="Layer 1"
     inkscape:groupmode="layer"
     id="layer1">
    <path
       style="opacity:0.75;fill:#bfb84d"
       d="M 7.9548538,0.00779003 15.23214,3.2317927 18,2.4282227 l 3.125,0.625 3.83928,5.8928599 -0.625,1.0714304 L 20.5,9.7496526 19.96428,12.160363 14.25,15.017513 7.10714,13.499653 3,16.981793 l 3.83928,3.39286 5.53572,0.17857 0.80357,-3.03571 3.66071,1.16071 0.26786,2.14286 7.58929,0.98214 4.19643,5.17857 5.35714,1.96429 4.55357,-1.69643 0,2.5 -1.25,0 0.89286,5.44643 18.125,4.82143 3.48214,-3.03572 6.07143,-1.60714 2.67857,0.17857 5.08929,-2.5 4.19642,0.44643 5.44643,2.76786 8.30357,-2.94643 -0.625,-3.75 5.71429,3.03571 5.71429,-2.67857 -0.26786,-2.32143 3.30357,-3.66071 0.17857,7.94643 -1.33928,1.42857 3.83931,-1.69643 4.10714,2.32143 -2.76785,3.125 1.25,0.80357 2.5,-2.67857 3.48214,1.42857 -0.44643,1.60714 2.85714,2.76786 2.94643,-1.16071 2.94643,2.05357 0.53572,-0.0893 -1.60715,-2.94643 0.625,-2.05357 4.10715,0.0893 -3.39286,-2.23215 4.55357,-5.08928 1.51786,0 1.51785,3.66071 1.78572,2.58929 -0.0893,2.05357 -1.60714,0 0.53571,4.10714 1.60715,1.42857 -0.17857,1.16072 -1.875,0.0893 c 0.42589,1.27025 1.17091,2.35629 1.875,3.48215 l -2.41072,3.57143 1.60714,-0.26786 2.23215,-2.5 4.23299,0.701449 2.86252,4.262681 -0.75554,1.318309 -1.45298,-3.257511 -5.2894,3.655323 0.84072,5.433478 -4.25592,-3.810179 -3.58564,1.367705 -2.09953,3.74187 -1.36163,-2.572333 -1.72486,0.944898 -1.42857,1.875 -3.21429,0 -4.19642,5.71429 -8.30358,3.83928 -4.18359,-5.219826 -0.43237,2.313175 2.46566,3.209009 -4.18898,0.858362 -14.91072,8.125 -9.715183,7.628488 5.18798,0.737319 -5.422029,1.154638 -2.440507,3.332579 0.869145,-3.542904 -8.390116,5.243449 -6.60714,5.267858 -3.57143,4.64285 -0.480241,2.2051 3.061391,1.09917 -2.106315,2.47294 0.957155,1.08496 4.76929,1.43601 3.17371,0.45182 1.42857,1.07143 2.23214,-0.71428 3.83929,-4.28572 4.82143,0.80357 3.21428,-1.25 6.51786,1.69643 7.67857,5.08929 10.08929,9.91071 4.10714,0.35715 2.76786,3.125 2.58928,-2.14286 2.5,0.17857 2.23215,-1.875 2.14285,0.625 5,4.19643 1.69643,0 5.80357,4.82143 0.35715,7.32143 2.76785,4.375 0.0893,10.71428 -1.96429,2.5 -2.58928,-0.44643 -0.0914,2.47707 -1.15922,1.89075 2.18561,10.6214 -0.85458,4.44057 -1.92113,1.46983 -0.47939,1.20874 4.01649,0.50741 1.57574,1.6464 -7.02217,-0.15501 -1.875,0.98214 -1.84796,0.0616 -1.99133,0.92059 -1.32508,1.78503 -0.19954,-1.42185 -1.34328,0.37744 0.72504,1.58083 6.33929,5.26786 5,2.14285 1.875,0.0893 1.25,-1.33929 1.33929,0.71429 2.58928,3.83929 0.0893,2.23214 3.30357,0.53571 2.58928,3.61877 6.42858,-0.49377 2.05357,-1.33928 3.21428,0.17857 1.51786,1.16071 5.625,-0.17857 1.33929,-1.25 2.14285,-0.0893 2.05357,-1.875 6.07143,-1.96429 2.32143,-5.80357 5.08929,-1.25 1.69643,-4.82143 4.16995,0.51217 2.42442,-7.6903 5.72706,-10.50044 6.42857,-3.92857 8.21428,-2.41072 3.83929,-4.10714 4.91071,-0.98214 2.5,1.33928 3.125,-1.78571 1.16072,1.60714 1.5728,-0.81927 1.46291,-2.57359 3.75,-0.80357 2.5,2.23215 2.23214,2.67857 3.9962,-2.38699 0.59119,-4.31816 1.30547,-2.58057 2.76786,-2.76785 3.30357,-0.80358 1.16071,-2.14285 0.625,-2.14286 1.69643,-0.44643 0.98215,0.80357 2.5,-1.42857 3.34343,2.12931 0.91383,-0.56276 -1.53002,-0.18671 -1.01665,-2.01162 0.78937,-2.04681 1.96428,-0.80357 3.52272,-0.0135 -0.48024,-1.14719 -3.57819,-1.42857 1.69643,-4.64285 4.64285,-3.30358 3.83929,-2.23214 6.51786,0 10.89285,5.08929 3.48215,4.01785 0.71428,2.67858 3.39286,0 5,-2.41072 1.16071,1.33929 2.23215,-0.44643 1.875,-4.55357 5.44642,0 1.16072,1.96428 5.71428,-0.17857 1.875,1.07143 1.69643,-1.42857 0.26786,-2.76786 7.94643,-0.625 2.58928,-2.05357 2.05358,-0.26786 0.78493,-1.74353 -3.90993,-5.39932 0,-8.30358 1.07142,-1.69642 0,-4.82143 4.28572,-0.71429 -0.17857,-1.96428 -1.33929,-0.17858 0.0893,-3.125 2.5,-0.624998 2.76785,0.446428 1.96429,0.89286 4.08617,-4.090181 -3.64984,-4.278266 0.24345,-0.835424 -1.69642,-0.912459 -0.53709,1.738371 -1.97105,0.198845 -4.66784,-2.90586 -2.07524,0.549247 -0.22051,1.682903 -3.79734,-0.432903 -2.41072,-1.78572 -2.23214,0.98214 -0.53572,1.25 -0.98214,-0.71428 0.18642,-2.39208 -6.97213,1.76708 -5.53572,-0.26786 -3.75,3.571429 -1.78571,5.71429 -2.67857,2.142848 -4.46429,-0.98214 -6.51786,-4.553568 -1.17424,-3.07629 1.45494,-1.126211 -0.17445,-1.310469 -1.59178,-0.08446 -1.74095,1.191028 0.80833,1.006096 -0.28815,1.545588 -1.19522,2.405324 -3.7006,3.728342 1.61792,1.73975 -3.03365,3.26701 -6.51786,1.69643 -6.16071,2.58929 -2.85715,0.625 -3.69675,-1.71963 -3.94055,-2.11357 -3.55928,-2.63193 -5.39028,-6.284494 -6.62742,-8.659337 -4.55759,-6.096425 -7.18412,-10.156227 -1.32714,-2.201759 -1.32644,-2.32143 -3.3861,-5.962541 -3.45303,-6.990647 -2.15844,-6.37986 -1.51786,-6.25 -1.50502,-10.701347 -1.35212,-3.584363 -1.20665,-1.46028 -1.91835,0.74599 0.89286,1.96429 0.44643,3.57142 -0.98421,1.812087 -3.2332,-3.714816 -1.93047,0.550608 -2.73943,-0.692623 -0.16436,0.845512 3.94004,3.574768 -1.13837,2.671116 2.53587,2.926831 2.37484,-3.777053 1.78571,1.42857 1.33929,3.83929 0.26786,6.16071 1.33928,0.89286 0.14476,4.38314 -1.05859,3.770971 0.72173,3.21899 1.97782,-2.355241 0.80357,-2.5 1.81345,0.453188 1.69643,2.959957 1.31831,4.250526 3.4551,4.753807 2.85038,4.686175 7.18607,10.142598 3.37934,5.322652 0.78808,0.398498 7.26595,9.257293 4.4886,6.116706 0.88884,0.0718 3.14322,3.11687 0.93619,-0.25973 2.91595,2.45806 0.82728,-0.44574 1.15395,1.27097 -0.0893,1.51786 -5,2.23214 -2.85715,-3.125 -12.67857,-4.55357 -3.30357,0.98214 -5.08929,-3.66071 -0.17857,-2.94643 -2.85714,-2.589291 0.98214,-2.05357 4.91072,-2.41071 -2.58929,-9.464289 -3.03571,-4.73214 -3.03572,-1.60714 -1.42857,-4.01786 -4.10714,0.98214 -4.49947,-4.388527 1.55304,-3.379333 -4.46429,3.48215 -2.5,-1.25 -2.85714,0.26785 -1.16071,-1.60714 5.0933,-5.031067 -3.00523,-1.302827 -6.46307,2.762464 -0.63853,-5.807584 4.55014,-3.396874 1.09103,1.780221 2.27008,-1.950077 -0.57629,-3.839966 -8.39286,6.25 -5.44643,6.42857 -2.76786,1.96428 -3.75,0.53572 0.35715,-2.5 2.94642,-1.69643 0.17858,-2.41071 1.96428,-1.33929 1.25,-3.92857 2.58929,0 3.125,-6.875 -5.44173,-3.453725 1.19051,3.283971 -0.6595,3.651894 -3.125,-0.35714 0.22522,3.915729 -1.94331,-0.589816 -1.46983,-4.372942 -0.91921,-1.363691 -2.76786,2.14286 0.0893,7.32143 -1.69643,-1.69643 0.17857,-2.14286 -1.51786,1.25 -0.625,-1.33928 -1.16071,1.25 0,-2.94643 4.10714,-4.46429 -2.32143,-2.05357 -2.14285,-0.80357 0.90099,-1.291942 -2.50814,-3.261628 -0.44642,2.85714 -1.875,1.33929 -2.14286,-1.25 0.17857,-5.53572 -2.41072,5.89286 -1.51785,-0.35714 0.44643,-3.48214 -5.35715,-0.26786 -1.96428,-0.53572 6.16071,4.82143 0.44643,4.10715 -0.625,1.51785 -4.375,0.89286 -1.875,-4.01786 0.625,-2.05357 1.51786,1.42857 1.16071,-2.23214 -10,-8.48214 -5.72105,-1.118768 0.24012,1.33928 3.51665,0.940198 0,1.96429 -1.25,0.80357 1.16071,1.07143 0,2.58928 -3.03571,-0.17857 -2.23215,-4.10714 -2.5,3.30357 -1.875,-0.17857 0.71429,-3.83929 1.875,-1.07143 -2.90722,-2.947106 4.61913,-0.337541 -4.99451,-2.977998 -3.33239,-3.524445 0.36499,5.14424 -1.42857,1.51785 -4.64286,-3.57142 -1.96429,-4.82143 -0.26785,-2.76786 2.14285,0.44643 1.07143,-2.58929 3.03572,-1.07143 1.96428,1.69643 4.01786,1.07143 1.25,-1.25 1.42857,1.16072 4.28572,0 2.23214,4.91071 2.32143,3.125 1.33928,0.625 0.80357,-2.76786 2.5,2.05357 -0.0893,1.42858 3.66071,-0.17858 -5.08928,-5.80357 1.07143,-0.625 4.375,0.26786 0.53571,3.125 2.67857,-3.125 -4.46428,-4.01786 0.44642,-5.71428 2.23215,-0.0893 5.625,6.25 0.26785,3.57143 3.12501,1.78571 -0.0893,6.33929 1.42857,-1.07143 0,-6.96428 -2.23214,-0.17858 0,-1.51785 2.32143,-2.41072 1.78571,2.67857 2.76786,-0.0893 1.33928,2.58928 4.73215,1.96429 2.32143,-1.51786 0.26785,-2.41071 2.05357,-1.42857 2.67858,3.57143 -0.35715,4.82142 -1.69643,3.03572 -2.5,-2.23214 -1.78571,1.60714 -0.0893,-3.75 -3.30352,4.55361 0,2.05357 2.94643,2.14286 -1.60714,1.33928 -2.32143,-1.51785 -0.98214,2.58928 0,1.60715 5.17857,-0.0893 0,4.28571 2.05357,-4.01785 3.68914,0.905711 3.90015,-8.673551 0,-3.92857 -1.25,-0.89286 0.17857,-5.17857 6.60714,-1.16071 4.73214,3.21428 1.85172,-0.73436 0.38042,-4.71208 4.28572,-2.85714 1.78571,-4.28571 1.07143,4.28571 8.92857,-2.85714 5.71429,-7.1428604 4.64286,-7.8571399 4.64285,1.42857 -0.71428,2.8571399 2.85714,0.35714 3.91504,-1.4765941 -10.02011,18.4085435 -10.59136,4.139481 -0.17857,2.05357 -2.14286,0.625 -2.05357,3.39286 1.96429,0.625 8.57143,-4.73214 4.10714,-3.57143 13.72938,-25.36301027 z"
       id="path5058"
       inkscape:connector-curvature="0"
       sodipodi:nodetypes="ccccccccccccccccccccccccccccccccccccccccccccccccccccccccccccccccccccccccccccccccccccccccccccccccccccccccccccccccccccccccccccccccccccccccccccccccccccccccccccccccccccccccccccccccccccccccccccccccccccccccccccccccccccccccccccccccccccccccccccccccccccccccccccccccccccccccccccccccccccccccccccccccccccccccccccccccccccccccccccccccccccccccccccccccccccccccccccccccccccccccccccccccccccccccccccccccccccccccccccccccccccccccccccccccccccccccccccccccccccccccccccccccccccccccccccccccccccccccccccccccccccccccccccccccccccc" />
  </g>
</svg>
