<svg xmlns="http://www.w3.org/2000/svg" viewBox="0 0 350 210"><path d="M7.955.008l7.277 3.224L18 2.428l3.125.625 3.84 5.893-.626 1.072-3.84-.268-.536 2.41-5.714 2.858L7.107 13.5 3 16.982l3.84 3.393 5.535.178.804-3.035 3.66 1.16.267 2.143 7.59.983 4.196 5.18 5.357 1.963 4.554-1.696v2.5h-1.25l.892 5.446 18.125 4.822 3.484-3.036 6.07-1.607 2.68.178 5.09-2.5 4.195.447 5.446 2.768 8.303-2.947-.626-3.75 5.715 3.037 5.713-2.68-.268-2.32 3.304-3.66.177 7.946-1.34 1.428 3.84-1.695 4.107 2.32-2.768 3.126 1.25.805 2.5-2.68 3.483 1.43-.448 1.607L119.34 41l2.946-1.16 2.946 2.053.536-.09-1.607-2.946.626-2.054 4.107.09-3.393-2.233 4.554-5.09h1.517l1.52 3.662 1.785 2.59-.09 2.053h-1.606l.534 4.107 1.607 1.428-.177 1.16-1.875.09c.426 1.27 1.17 2.357 1.875 3.483l-2.41 3.57 1.606-.267 2.23-2.5 4.234.702 2.863 4.262-.756 1.32-1.452-3.26-5.29 3.656.842 5.434-4.256-3.81-3.586 1.367-2.1 3.742-1.36-2.573-1.726.945-1.428 1.875h-3.215l-4.197 5.714-8.304 3.84-4.184-5.22-.433 2.314 2.466 3.21-4.19.857-14.91 8.126-9.716 7.63 5.188.736-5.422 1.155L73.2 94.3l.87-3.544L65.68 96l-6.61 5.268-3.57 4.642-.48 2.205 3.06 1.1-2.105 2.473.957 1.085 4.77 1.436 3.173.45 1.43 1.072 2.23-.714 3.84-4.286 4.82.803 3.216-1.25 6.52 1.697 7.677 5.09 10.09 9.91 4.107.357 2.767 3.124 2.59-2.143 2.5.18 2.233-1.875 2.143.625 5 4.196h1.696l5.804 4.822.357 7.32 2.768 4.376.09 10.714-1.964 2.5-2.59-.446-.09 2.477-1.16 1.89 2.185 10.62-.853 4.442-1.92 1.47-.48 1.208 4.016.508 1.576 1.646-7.024-.155-1.875.98-1.847.063-1.99.92-1.326 1.785-.2-1.422-1.343.378.725 1.58 6.34 5.27 5 2.14 1.874.09 1.25-1.34 1.34.716 2.588 3.84.09 2.23 3.303.537 2.59 3.62 6.428-.495 2.053-1.34 3.215.18 1.52 1.16 5.624-.18 1.34-1.25 2.142-.088 2.053-1.875 6.07-1.965 2.322-5.804 5.09-1.25 1.696-4.82 4.17.512 2.424-7.69 5.727-10.5 6.428-3.93 8.214-2.41 3.84-4.107 4.91-.982 2.5 1.34 3.125-1.787 1.16 1.607 1.574-.82 1.464-2.573 3.75-.803 2.5 2.232 2.232 2.678 3.996-2.387.59-4.318 1.307-2.58 2.766-2.768 3.304-.804 1.16-2.142.626-2.143 1.696-.447.982.804 2.5-1.43 3.344 2.13.914-.562-1.53-.187-1.017-2.01.79-2.048 1.964-.804 3.52-.012-.48-1.148-3.577-1.428 1.696-4.643 4.642-3.305 3.84-2.232h6.517l10.892 5.09 3.482 4.017.715 2.68h3.39l5-2.412 1.162 1.34 2.232-.447 1.875-4.552h5.446l1.16 1.964 5.715-.18 1.876 1.073 1.696-1.43.268-2.767 7.946-.625 2.59-2.053 2.053-.268.784-1.744-3.91-5.4v-8.303l1.072-1.696v-4.822l4.285-.715-.177-1.964-1.34-.18.09-3.125 2.5-.625 2.768.447 1.965.893 4.086-4.09-3.65-4.28.245-.834-1.697-.913-.537 1.74-1.97.198-4.668-2.905-2.075.55-.22 1.682-3.798-.433-2.41-1.786-2.234.982-.535 1.25-.98-.714.185-2.392-6.972 1.767-5.536-.267-3.75 3.572-1.786 5.714-2.677 2.142-4.464-.982-6.52-4.554-1.174-3.076 1.455-1.126-.173-1.31-1.592-.085-1.74 1.19.808 1.006-.29 1.545-1.194 2.407-3.7 3.728 1.616 1.74-3.033 3.267-6.518 1.696-6.16 2.59-2.858.625-3.697-1.72-3.94-2.114-3.56-2.633-5.39-6.284-6.627-8.66-4.558-6.096-7.184-10.156-1.326-2.2-1.326-2.322-3.387-5.963-3.452-6.99-2.158-6.38-1.518-6.25-1.505-10.702-1.352-3.584-1.207-1.46-1.918.745.893 1.964.446 3.57-.985 1.813-3.233-3.715-1.93.55-2.74-.692-.164.845 3.94 3.576-1.14 2.67 2.537 2.928L213 37.607l1.786 1.428 1.34 3.84.267 6.16 1.34.893.144 4.383-1.06 3.772.723 3.22 1.978-2.356.803-2.5 1.815.453 1.696 2.96 1.32 4.25 3.455 4.754 2.85 4.686 7.186 10.142 3.38 5.323.79.4 7.265 9.256 4.488 6.118.89.07 3.142 3.118.936-.26 2.917 2.46.828-.447 1.154 1.27-.09 1.518-5 2.232-2.858-3.125-12.678-4.554-3.304.983-5.09-3.66-.178-2.947-2.857-2.59.982-2.053 4.91-2.41-2.588-9.465-3.037-4.732-3.036-1.607-1.428-4.02-4.11.983-4.498-4.388 1.553-3.38-4.464 3.483-2.5-1.25-2.856.267-1.16-1.607 5.092-5.03-3.005-1.304-6.462 2.763-.64-5.808 4.55-3.398 1.092 1.78 2.27-1.95-.576-3.84-8.393 6.25-5.445 6.43-2.768 1.963-3.75.536.357-2.5 2.947-1.695.18-2.41 1.964-1.34 1.25-3.93h2.59l3.124-6.874-5.442-3.453 1.19 3.284-.66 3.653-3.124-.357.225 3.916-1.943-.59-1.47-4.373-.92-1.365-2.767 2.143.09 7.322L188 56.803l.18-2.143-1.52 1.25-.624-1.34-1.16 1.25v-2.945l4.106-4.465-2.32-2.053-2.144-.804.9-1.292-2.507-3.26-.446 2.857-1.875 1.34-2.144-1.25.18-5.537-2.412 5.893-1.518-.357.447-3.482-5.357-.268-1.965-.536 6.162 4.822.447 4.107-.626 1.517-4.375.893-1.876-4.018.625-2.054 1.516 1.43 1.16-2.233-10-8.482-5.72-1.12.24 1.34 3.517.94v1.965l-1.25.803 1.16 1.073v2.59l-3.035-.18-2.232-4.107-2.5 3.304-1.875-.18.715-3.838 1.875-1.072-2.907-2.947 4.62-.337-4.996-2.978-3.332-3.525.365 5.145-1.43 1.517-4.64-3.57-1.966-4.822-.268-2.768 2.143.446 1.07-2.588 3.036-1.072 1.965 1.697 4.02 1.07 1.25-1.25 1.427 1.162h4.286l2.232 4.91 2.32 3.125 1.34.625.804-2.768 2.5 2.053-.09 1.43 3.66-.18-5.09-5.803 1.073-.625 4.375.268.536 3.125 2.678-3.125-4.464-4.018.446-5.714 2.232-.09 5.625 6.25.27 3.572 3.124 1.785-.09 6.34 1.43-1.072v-6.964l-2.233-.18V23.77l2.323-2.41 1.786 2.677 2.766-.09 1.34 2.59 4.732 1.965 2.32-1.518.27-2.41 2.053-1.43 2.68 3.572-.358 4.82-1.696 3.037-2.5-2.23L193 33.945l-.09-3.75-3.303 4.554v2.053l2.947 2.143-1.608 1.34-2.32-1.518-.983 2.59v1.606l5.178-.09v4.286l2.055-4.017 3.69.905 3.9-8.673v-3.93l-1.25-.892.178-5.178 6.607-1.16 4.732 3.213 1.852-.734.38-4.712 4.286-2.857 1.786-4.286 1.07 4.285 8.93-2.857 5.714-7.143 4.643-7.857 4.643 1.428-.715 2.857 2.86.357 3.914-1.476-10.02 18.408-10.592 4.14-.178 2.053-2.143.625-2.053 3.393 1.964.625 8.573-4.732 4.107-3.57L255.48.01z" opacity=".75" fill="#bfb84d"/></svg>